<?xml version="1.0" encoding="UTF-8"?>
<svg id="Layer_1" data-name="Layer 1" xmlns="http://www.w3.org/2000/svg" xmlns:xlink="http://www.w3.org/1999/xlink" viewBox="0 0 1214 653">
  <defs>
    <style>
      .cls-1, .cls-2 {
        stroke: #000;
        stroke-miterlimit: 10;
        stroke-width: .5px;
      }

      .cls-1, .cls-3 {
        fill: #fff;
      }

      .cls-2 {
        fill: #fcee21;
      }

      .cls-4 {
        clip-path: url(#clippath-2);
      }

      .cls-5, .cls-6, .cls-3, .cls-7, .cls-8, .cls-9 {
        stroke-width: 0px;
      }

      .cls-6 {
        fill: none;
      }

      .cls-10 {
        clip-path: url(#clippath-1);
      }

      .cls-11 {
        clip-path: url(#clippath);
      }

      .cls-7 {
        fill: #42210b;
      }

      .cls-8 {
        fill: #603813;
      }

      .cls-9 {
        fill: #c69c6d;
      }
    </style>
    <clipPath id="clippath">
      <rect class="cls-6" width="1214" height="653"/>
    </clipPath>
    <clipPath id="clippath-1">
      <rect class="cls-6" x="-112" width="1326" height="657"/>
    </clipPath>
    <clipPath id="clippath-2">
      <rect class="cls-6" x="-2" y="-15" width="1445" height="697"/>
    </clipPath>
  </defs>
  <g class="cls-11">
    <g class="cls-10">
      <g class="cls-4">
        <g>
          <path class="cls-2" d="M1173.1,379.82c-.06-2.29,3.19-4.33,7.87-5.28l-.21-8.42,11-.27.22,8.62c4.18.82,7.07,2.58,7.12,4.7.08,3.04-5.68,5.64-12.86,5.82-7.18.18-13.06-2.13-13.13-5.17Z"/>
          <path class="cls-2" d="M1199.5,280c0,2.29-3.3,4.25-8,5.08v8.42h-11v-8.62c-4.16-.92-7-2.76-7-4.88,0-3.04,5.82-5.5,13-5.5s13,2.46,13,5.5Z"/>
          <g>
            <path class="cls-9" d="M-224,586.5c-66.1,0-128.24-26.72-174.98-75.25-46.76-48.54-72.52-113.09-72.52-181.75s25.75-133.21,72.52-181.75c46.74-48.52,108.89-75.25,174.98-75.25,21.86,0,43.55,2.96,64.46,8.81.28.07.54.15.79.22,34.41,9.74,67.05,27.58,94.41,51.6l.27.24.34.13c31.43,11.81,64.24,19.38,97.54,22.5,11.64,1.09,23.48,1.65,35.17,1.65,21.37,0,42.97-1.84,64.18-5.48l.29-.05.26-.13c22.58-11.2,46.83-17.89,72.09-19.87.14,0,.27-.02.41-.03,5.04-.38,10.21-.58,15.3-.58,109.18,0,198,88.82,198,198s-88.82,198-198,198c-5.75,0-11.58-.25-17.33-.75-.27-.01-.46-.03-.64-.05-29.86-2.68-58.01-11.85-83.69-27.25l-.31-.19-.35-.07c-19.95-3.69-40.27-5.56-60.4-5.56-9.95,0-20.04.46-29.96,1.37-26.58,2.42-52.88,8.1-78.17,16.88l-.45.16-.33.34c-46.59,47.79-108.34,74.12-173.87,74.12Z"/>
            <path class="cls-5" d="M-224,74.5c21.68,0,43.19,2.94,63.92,8.73h.04s.04.02.04.02c.23.06.46.13.73.21,34.1,9.65,66.47,27.35,93.61,51.17l.55.48.68.26c31.59,11.87,64.58,19.48,98.05,22.62,11.71,1.1,23.6,1.66,35.35,1.66,21.49,0,43.19-1.85,64.52-5.51l.58-.1.52-.26c22.34-11.08,46.33-17.69,71.31-19.67.18,0,.33-.02.44-.03,5.03-.38,10.12-.58,15.15-.58,26.46,0,52.13,5.18,76.29,15.4,23.34,9.87,44.3,24,62.3,42.01,18,18,32.13,38.96,42.01,62.3,10.22,24.16,15.4,49.83,15.4,76.29s-5.18,52.13-15.4,76.29c-9.87,23.34-24,44.3-42.01,62.3-18,18-38.96,32.13-62.3,42.01-24.16,10.22-49.83,15.4-76.29,15.4-5.69,0-11.46-.25-17.15-.75h-.08s-.08-.01-.08-.01c-.15,0-.31-.02-.47-.04-29.54-2.66-57.41-11.73-82.83-26.97l-.62-.37-.71-.13c-20.07-3.71-40.51-5.59-60.76-5.59-10.01,0-20.16.46-30.15,1.37-26.73,2.43-53.2,8.15-78.65,16.98l-.89.31-.66.68c-22.49,23.07-48.62,41.18-77.64,53.81-30.04,13.07-61.93,19.7-94.79,19.7s-65.26-6.73-95.51-20.02c-29.23-12.83-55.48-31.21-78.03-54.62-22.56-23.42-40.27-50.69-52.65-81.06-12.81-31.45-19.31-64.86-19.31-99.3s6.5-67.86,19.31-99.3c12.37-30.37,30.09-57.64,52.65-81.06,22.55-23.41,48.8-41.78,78.03-54.62,30.25-13.28,62.38-20.02,95.51-20.02M-224,70.5c-137.8,0-249.5,115.96-249.5,259s111.7,259,249.5,259c68.34,0,130.26-28.52,175.3-74.72,22.96-7.97,48.93-14.16,77.7-16.78,10.23-.93,20.17-1.36,29.78-1.36,21.79,0,41.92,2.18,60.04,5.53,25.12,15.06,53.82,24.76,84.53,27.52.21.02.43.04.65.05,5.76.5,11.6.76,17.5.76,110.46,0,200-89.54,200-200s-89.54-200-200-200c-5.22,0-10.38.2-15.5.59-.1.01-.2.02-.3.02-26.01,2.04-50.62,9.04-72.88,20.08-19.1,3.27-40.53,5.45-63.84,5.45-11.24,0-22.92-.51-34.98-1.64-36.77-3.45-69.28-11.96-97.02-22.38-27.31-23.97-59.66-41.96-95.16-52.01-.27-.08-.55-.16-.82-.23-20.72-5.79-42.52-8.88-65-8.88h0Z"/>
          </g>
          <g>
            <path class="cls-3" d="M203.35,528.69c.21.02.43.04.65.05v.26c-.21-.1-.43-.21-.65-.31Z"/>
            <path class="cls-5" d="M203.35,528.69c.22.1.44.21.65.31v-.26c-.22-.01-.44-.03-.65-.05h0Z"/>
          </g>
          <g>
            <path class="cls-3" d="M206,130v.09c-.1.01-.2.02-.3.02.1-.03.2-.07.3-.11Z"/>
            <path class="cls-5" d="M206,130c-.1.04-.2.08-.3.11.1,0,.2-.01.3-.02v-.09h0Z"/>
          </g>
          <g>
            <ellipse class="cls-9" cx="182" cy="329.5" rx="92.5" ry="87"/>
            <path class="cls-5" d="M182,248.5c47.7,0,86.5,36.34,86.5,81s-38.8,81-86.5,81-86.5-36.34-86.5-81,38.8-81,86.5-81M182,236.5c-54.4,0-98.5,41.64-98.5,93s44.1,93,98.5,93,98.5-41.64,98.5-93-44.1-93-98.5-93h0Z"/>
          </g>
          <g>
            <polygon class="cls-8" points="233 281.01 1120.5 293.49 1120.5 365.51 233 378.99 233 281.01"/>
            <path class="cls-5" d="M233.5,281.51l886.5,12.47v71.03l-886.5,13.47v-96.97M232.5,280.5v99c296.17-4.5,592.33-9,888.5-13.5v-73c-296.17-4.17-592.33-8.33-888.5-12.5h0Z"/>
          </g>
          <g>
            <ellipse class="cls-7" cx="182" cy="329.5" rx="71.3" ry="67.24"/>
            <path class="cls-5" d="M182,263.76c38.49,0,69.8,29.49,69.8,65.74s-31.31,65.74-69.8,65.74-69.8-29.49-69.8-65.74,31.31-65.74,69.8-65.74M182,260.76c-40.21,0-72.8,30.78-72.8,68.74s32.6,68.74,72.8,68.74,72.8-30.78,72.8-68.74-32.6-68.74-72.8-68.74h0Z"/>
          </g>
          <g>
            <path class="cls-8" d="M1121.5,365.54v-72.08l222.27-18.94,3.48,4.47,18.46.5,4.5,7.51h.28c23.44.53,42.51,20.04,42.51,43.5s-19.07,42.97-42.51,43.49h-.23s-4.51,5.53-4.51,5.53l-18.47,1.5-4.46,4.46-221.31-19.94Z"/>
            <path class="cls-5" d="M1343.54,275.04l1.42,1.82,1.75,2.25.29.37h.47s9.25.26,9.25.26l8.7.24,1.97,3.28,2.25,3.75.28.47h.55c11.28.26,21.84,4.85,29.75,12.92,7.92,8.08,12.27,18.77,12.27,30.09s-4.36,22-12.27,30.09c-7.9,8.07-18.47,12.65-29.75,12.9h-.46s-.29.37-.29.37l-2.25,2.76-1.98,2.43-8.83.72-9.25.75-.37.03-.26.26-4.17,4.17-110.53-9.96-110.09-9.92v-71.17l110.58-9.42,110.96-9.45M1344,274c-74.33,6.33-148.67,12.67-223,19v73c74,6.67,148,13.33,222,20l4.5-4.5c6.17-.5,12.33-1,18.5-1.5l4.5-5.51c23.84-.53,43-20.02,43-43.99s-19.16-43.46-43-43.99c-1.5-2.5-3-5.01-4.5-7.51-6.17-.17-12.33-.33-18.5-.5-1.17-1.5-2.33-3-3.5-4.5h0Z"/>
          </g>
          <rect class="cls-3" x="1116.5" y="293.5" width="9" height="72"/>
          <rect class="cls-3" x="1062.5" y="292.5" width="2" height="74"/>
          <rect class="cls-3" x="1016.5" y="291.5" width="2" height="76"/>
          <rect class="cls-3" x="970.5" y="291.5" width="2" height="76"/>
          <rect class="cls-3" x="926.5" y="290.5" width="2" height="78"/>
          <rect class="cls-3" x="884.5" y="290.5" width="2" height="78"/>
          <rect class="cls-3" x="843.5" y="289.5" width="2" height="80"/>
          <rect class="cls-3" x="800.5" y="289.5" width="2" height="81"/>
          <rect class="cls-3" x="758.5" y="288.5" width="2" height="82"/>
          <rect class="cls-3" x="715.5" y="287.5" width="2" height="84"/>
          <rect class="cls-3" x="671.5" y="287.5" width="2" height="84"/>
          <rect class="cls-3" x="626.5" y="286.5" width="2" height="86"/>
          <rect class="cls-3" x="581.5" y="286.5" width="2" height="87"/>
          <rect class="cls-3" x="536.5" y="285.5" width="2" height="89"/>
          <rect class="cls-3" x="492.5" y="284.5" width="2" height="90"/>
          <rect class="cls-3" x="445.5" y="284.5" width="2" height="91"/>
          <rect class="cls-3" x="398.5" y="283.5" width="2" height="93"/>
          <rect class="cls-3" x="352.5" y="282.5" width="2" height="95"/>
          <rect class="cls-3" x="305.5" y="282.5" width="2" height="95"/>
          <rect class="cls-3" x="261.5" y="281.5" width="2" height="97"/>
          <rect class="cls-3" x="1152.53" y="295.3" width="174.19" height="19" rx="9.5" ry="9.5" transform="translate(-21.41 106.38) rotate(-4.87)"/>
          <rect class="cls-3" x="1152.38" y="344.31" width="174.19" height="19" rx="9.5" ry="9.5" transform="translate(36.48 -109.1) rotate(5.12)"/>
          <path class="cls-1" d="M1191.5,319.5c-3.67.33-7.33.67-11,1v-21c3.67-.33,7.33-.67,11-1v21Z"/>
          <path class="cls-1" d="M1192,359.5c-3.67-.38-7.33-.75-11-1.13v-19.87c3.67.32,7.33.65,11,.97v20.03Z"/>
          <rect class="cls-8" x="1178.47" y="295.76" width="16.05" height="4" transform="translate(-21 101.84) rotate(-4.87)"/>
          <rect class="cls-8" x="1178.57" y="318.97" width="14.95" height="4" transform="translate(-22.97 101.89) rotate(-4.87)"/>
          <rect class="cls-8" x="1179.44" y="335.45" width="14.12" height="4" transform="translate(34.81 -104.45) rotate(5.12)"/>
          <rect class="cls-8" x="1179.51" y="358.7" width="14.94" height="4" transform="translate(36.89 -104.4) rotate(5.12)"/>
        </g>
      </g>
    </g>
  </g>
</svg>